<svg xmlns="http://www.w3.org/2000/svg" width="256" height="256" viewBox="0 0 256 256" role="img" aria-label="Notepad Star app icon"><title>Notepad Star app icon</title><defs><linearGradient id="tile" x2="0" y2="1"><stop stop-color="#1b2b4a"/><stop offset="1" stop-color="#0a1227"/></linearGradient></defs><rect x="8" y="8" width="240" height="240" rx="56" fill="url(#tile)" stroke="#34476a"/><path d="M58 196 L58 76 Q58 58 76 58 L94 58 L158 143 L158 107 L188 107 L188 178 Q188 196 170 196 L156 196 L88 108 L88 196 Z" fill="#f1f5ff"/><path d="M94 58 L116 88 L88 88 L88 58 Z" fill="#8ca5ff"/><path d="M183 24 C188 48 197 56 220 62 C197 67 188 76 183 100 C178 76 169 67 146 62 C169 56 178 48 183 24 Z" fill="#74edda"/></svg>
